<svg xmlns="http://www.w3.org/2000/svg" width="17.207" height="23.798" viewBox="0 0 17.207 23.798">
  <g id="Group_6692" data-name="Group 6692" transform="translate(-0.437 -0.131)">
    <path id="Path_16905" data-name="Path 16905" d="M54.92,1030.263v20.489l2.283-2.022,3.106,2.854,2.647-2.6,3.293,2.6,2.806-2.854,2.071,1.669v-20.136l-2.071,1.635-3.27-2.32-2.829,2.32-3.111-2.733L57.2,1031.9Z" transform="translate(-53.983 -1028.345)" fill="#fd9f10" stroke="#fd9f10" stroke-width="1"/>
    <g id="Group_6329" data-name="Group 6329" transform="translate(2.903 11.421)">
      <path id="Path_16902" data-name="Path 16902" d="M120.352,203.527H109.318a.582.582,0,1,0,0,1.164h11.034a.582.582,0,1,0,0-1.164Z" transform="translate(-108.736 -203.527)" fill="#2c2c2e"/>
    </g>
    <g id="Group_6331" data-name="Group 6331" transform="translate(2.903 7.929)">
      <path id="Path_16903" data-name="Path 16903" d="M115.114,143.527h-5.8a.582.582,0,0,0,0,1.164h5.8a.582.582,0,0,0,0-1.164Z" transform="translate(-108.736 -143.527)" fill="#2c2c2e"/>
    </g>
    <g id="Group_6333" data-name="Group 6333" transform="translate(2.903 14.913)">
      <path id="Path_16904" data-name="Path 16904" d="M120.352,263.527H109.318a.582.582,0,1,0,0,1.164h11.034a.582.582,0,1,0,0-1.164Z" transform="translate(-108.736 -263.527)" fill="#2c2c2e"/>
    </g>
  </g>
</svg>
