<svg xmlns="http://www.w3.org/2000/svg" width="28.633" height="25.76" viewBox="0 0 28.633 25.76">
  <g id="Group_6898" data-name="Group 6898" transform="translate(-259.684 -1385.205)">
    <g id="Group_6897" data-name="Group 6897" transform="translate(-31.738 -77.691)">
      <path id="star" d="M8.311,3.51a.442.442,0,0,0-.381-.3L5.525,2.987,4.574.761a.443.443,0,0,0-.815,0L2.808,2.987.4,3.205a.443.443,0,0,0-.251.775L1.969,5.575,1.433,7.936a.442.442,0,0,0,.659.478l2.075-1.24L6.24,8.415A.443.443,0,0,0,6.9,7.936L6.363,5.575,8.181,3.981A.443.443,0,0,0,8.311,3.51Zm0,0" transform="translate(291.421 1477.899)" fill="#9e9ea5"/>
      <path id="star-2" data-name="star" d="M5.2,2.379a.276.276,0,0,0-.238-.19l-1.5-.137L2.859.66a.277.277,0,0,0-.509,0L1.755,2.052l-1.5.137a.277.277,0,0,0-.157.484l1.136,1L.9,5.145a.276.276,0,0,0,.412.3l1.3-.775,1.3.775a.277.277,0,0,0,.412-.3L3.978,3.669l1.136-1A.277.277,0,0,0,5.2,2.379Zm0,0" transform="translate(299.491 1471.572)" fill="#9e9ea5"/>
      <path id="star-3" data-name="star" d="M5.2,2.379a.276.276,0,0,0-.238-.19l-1.5-.137L2.859.66a.277.277,0,0,0-.509,0L1.755,2.052l-1.5.137a.277.277,0,0,0-.157.484l1.136,1L.9,5.145a.276.276,0,0,0,.412.3l1.3-.775,1.3.775a.277.277,0,0,0,.412-.3L3.978,3.669l1.136-1A.277.277,0,0,0,5.2,2.379Zm0,0" transform="translate(293.07 1468.273)" fill="#9e9ea5"/>
    </g>
    <path id="Subtraction_7" data-name="Subtraction 7" d="M-1367.621,896.965l0,0a14.638,14.638,0,0,0,4.09-4.976A14.351,14.351,0,0,0-1362,885.5a14.382,14.382,0,0,0-2.849-8.633,14.429,14.429,0,0,0-7.235-5.182,12.907,12.907,0,0,1,3.5-.48,12.914,12.914,0,0,1,12.9,12.9,12.845,12.845,0,0,1-3.469,8.791,12.857,12.857,0,0,1-8.465,4.07Z" transform="translate(1644 514)" fill="#9e9ea5"/>
  </g>
</svg>
