<svg id="Sales_Icon" data-name="Sales Icon" xmlns="http://www.w3.org/2000/svg" width="16" height="22" viewBox="0 0 16 22">
  <path id="Exclusion_1" data-name="Exclusion 1" d="M11.111,22H4.889C1.512,22,0,19.007,0,16.042a13.332,13.332,0,0,1,4.236-9.8,1.387,1.387,0,0,1-.68-1.2A1.369,1.369,0,0,1,4.562,3.708L3.035,2.45A1.391,1.391,0,0,1,2.609.918,1.323,1.323,0,0,1,3.868,0h8.266a1.321,1.321,0,0,1,1.258.918,1.39,1.39,0,0,1-.426,1.531L11.44,3.709a1.367,1.367,0,0,1,1,1.332,1.387,1.387,0,0,1-.68,1.2A13.333,13.333,0,0,1,16,16.042C16,19.007,14.488,22,11.111,22ZM5,15.9a2.682,2.682,0,0,0,1,2.4,3.978,3.978,0,0,0,1.742.526V20.04h.575V18.811a3.423,3.423,0,0,0,1.589-.5A2.465,2.465,0,0,0,11,16.071a2.2,2.2,0,0,0-.8-1.809,7.39,7.39,0,0,0-1.9-.887V11.046a.922.922,0,0,1,.818.477,2.236,2.236,0,0,1,.178.795h1.559A2.429,2.429,0,0,0,9.821,10.2,2.926,2.926,0,0,0,8.3,9.707V8.882H7.739v.813a4.164,4.164,0,0,0-.918.153,2.275,2.275,0,0,0-.937.6,2.376,2.376,0,0,0-.507.8A2.856,2.856,0,0,0,5.2,12.281a2.371,2.371,0,0,0,.466,1.473,3.073,3.073,0,0,0,1.6.954l.48.147v2.61a1.219,1.219,0,0,1-.906-.532A3.074,3.074,0,0,1,6.6,15.9ZM4.889,4.583a.459.459,0,0,0,0,.917h6.222a.458.458,0,0,0,0-.917H4.889ZM8.3,17.448h0v-2.39a2.507,2.507,0,0,1,.706.367,1.051,1.051,0,0,1,.35.832,1.146,1.146,0,0,1-.374.972,1.5,1.5,0,0,1-.681.22ZM7.739,13.2h0A2.1,2.1,0,0,1,7.1,12.9a.991.991,0,0,1-.374-.813,1.063,1.063,0,0,1,.25-.743,1.025,1.025,0,0,1,.764-.284V13.2Z" fill="#fe5712"/>
</svg>
